<svg xmlns="http://www.w3.org/2000/svg" viewBox="0 0 100 100">
  <path
    fill="black"
    d="M50 1.252C23.11 1.252 1.252 23.132 1.252 50S23.11 98.748 50 98.748 98.748 76.869 98.748 50 76.89 1.252 50 1.252zm34.741 34.12c.829 0 1.594.497 1.864 1.283a39.327 39.327 0 0 1 1.71 6.183c.228 1.187-.744 2.284-1.959 2.284H54.878v-9.75h29.864zm-15.435-19.23a38.502 38.502 0 0 1 8.039 6.12c1.249 1.228.345 3.36-1.38 3.36H54.878v-9.75h13.414c.366 0 .71.097 1.014.27zM11.001 50c0-19.844 14.911-36.253 34.128-38.654v77.328C25.912 86.253 11 69.844 11 50zm66.371 27.731a38.991 38.991 0 0 1-8.038 6.12c-.31.173-.67.27-1.014.27H54.892v-9.743h21.093c1.732 0 2.616 2.125 1.387 3.353zm7.383-13.103H54.878v-9.75h31.478c1.208 0 2.167 1.097 1.96 2.284-.4 2.132-.96 4.182-1.69 6.183a1.987 1.987 0 0 1-1.87 1.283z"
  />
</svg>
